<svg xmlns="http://www.w3.org/2000/svg" xmlns:xlink="http://www.w3.org/1999/xlink" width="1000" zoomAndPan="magnify" viewBox="0 0 750 749.999995" height="1000" preserveAspectRatio="xMidYMid meet" version="1.0"><defs><g/><clipPath id="c8e68b27b5"><path d="M 362.222656 -419.136719 L 767.011719 -14.34375 L -102.230469 854.898438 L -507.023438 450.109375 Z M 362.222656 -419.136719 " clip-rule="nonzero"/></clipPath><clipPath id="e2e4623f22"><path d="M 362.222656 -419.136719 L 766.757812 -14.597656 L -102.195312 854.355469 L -506.730469 449.816406 Z M 362.222656 -419.136719 " clip-rule="nonzero"/></clipPath></defs><rect x="-75" width="900" fill="#ffffff" y="-74.999999" height="899.999994" fill-opacity="1"/><rect x="-75" width="900" fill="#ffffff" y="-74.999999" height="899.999994" fill-opacity="1"/><rect x="-75" width="900" fill="#000000" y="-74.999999" height="899.999994" fill-opacity="1"/><g clip-path="url(#c8e68b27b5)"><g clip-path="url(#e2e4623f22)"><path fill="#ff00a1" d="M 362.222656 -419.136719 L 766.597656 -14.757812 L -102.230469 854.070312 L -506.609375 449.695312 Z M 362.222656 -419.136719 " fill-opacity="1" fill-rule="nonzero"/></g></g><g fill="#ffffff" fill-opacity="1"><g transform="translate(0.0139373, 428.428674)"><g><path d="M 63.578125 2.410156 C 79.976562 2.410156 93.695312 -4.082031 104.003906 -13.453125 L 87.671875 -35.203125 C 80.710938 -28.980469 72.613281 -24.695312 63.578125 -24.695312 C 48.1875 -24.695312 33.730469 -37.011719 33.730469 -53.742188 C 33.730469 -70.273438 47.585938 -82.921875 64.179688 -82.921875 C 72.144531 -82.921875 80.914062 -78.972656 87.539062 -72.949219 L 104.003906 -94.097656 C 92.960938 -104.136719 78.035156 -110.226562 64.113281 -110.425781 C 30.519531 -110.425781 4.683594 -85.867188 4.683594 -53.941406 C 4.683594 -20.078125 33.128906 2.410156 63.578125 2.410156 Z M 63.578125 2.410156 "/></g></g></g><g fill="#ffffff" fill-opacity="1"><g transform="translate(106.825282, 428.428674)"><g><path d="M 70.070312 -107.882812 L 70.070312 -67.394531 L 38.015625 -67.394531 L 38.015625 -107.882812 L 9.371094 -107.882812 L 9.371094 0 L 38.015625 0 L 38.015625 -40.625 L 70.070312 -40.625 L 70.070312 0 L 98.648438 0 L 98.648438 -107.882812 Z M 70.070312 -107.882812 "/></g></g></g><g fill="#ffffff" fill-opacity="1"><g transform="translate(214.841267, 428.428674)"><g><path d="M 9.371094 0 L 38.015625 0 L 38.015625 -107.882812 L 9.371094 -107.882812 Z M 9.371094 0 "/></g></g></g><g fill="#ffffff" fill-opacity="1"><g transform="translate(262.223744, 428.428674)"><g><path d="M 83.253906 -107.882812 L 2.8125 -107.882812 L 2.8125 -81.113281 L 28.710938 -81.113281 L 28.710938 0 L 57.421875 0 L 57.421875 -81.113281 L 83.253906 -81.113281 Z M 83.253906 -107.882812 "/></g></g></g><path stroke-linecap="butt" transform="matrix(-0.891817, -0.000000000000000109, 0.000000000000000109, -0.891817, 768.558181, 458.910742)" fill="none" stroke-linejoin="miter" d="M 96.861092 155.695728 C 115.200575 155.695728 130.548449 148.433521 142.081255 137.951939 L 123.811854 113.620478 C 116.024034 120.580458 106.965985 125.372289 96.861092 125.372289 C 79.638535 125.372289 63.467202 111.596871 63.467202 92.880699 C 63.467202 74.387913 78.963999 60.240186 97.531247 60.240186 C 106.440373 60.240186 116.251799 64.655328 123.66293 71.391923 L 142.081255 47.734998 C 129.72499 36.504419 113.032425 29.693361 97.456786 29.465596 C 59.875519 29.465596 30.975612 56.94197 30.975612 92.657314 C 30.975612 130.540808 62.792666 155.695728 96.861092 155.695728 Z M 223.608076 32.312662 L 223.608076 77.607287 L 187.748189 77.607287 L 187.748189 32.312662 L 155.70337 32.312662 L 155.70337 153.001966 L 187.748189 153.001966 L 187.748189 107.554038 L 223.608076 107.554038 L 223.608076 153.001966 L 255.578434 153.001966 L 255.578434 32.312662 Z M 359.943101 153.001966 L 395.053991 153.001966 L 338.905476 30.814667 L 323.706525 30.814667 L 267.632472 153.001966 L 302.6689 153.001966 L 308.809802 138.924321 L 353.876661 138.924321 Z M 318.914695 115.490781 L 331.345422 86.893101 L 343.697307 115.490781 Z M 489.760536 32.312662 L 399.77136 32.312662 L 399.77136 62.259413 L 428.745729 62.259413 L 428.745729 153.001966 L 460.86501 153.001966 L 460.86501 62.259413 L 489.760536 62.259413 Z M 489.760536 32.312662 " stroke="#ffffff" stroke-width="5.749988" stroke-opacity="1" stroke-miterlimit="4"/></svg>