<svg xmlns="http://www.w3.org/2000/svg" xmlns:xlink="http://www.w3.org/1999/xlink" width="500" zoomAndPan="magnify" viewBox="0 0 375 374.999991" height="500" preserveAspectRatio="xMidYMid meet" version="1.0"><defs><clipPath id="e3c689bb82"><path d="M 2.886719 2.886719 L 372.113281 2.886719 L 372.113281 372.113281 L 2.886719 372.113281 Z M 2.886719 2.886719 " clip-rule="nonzero"/></clipPath><clipPath id="0a268e1feb"><path d="M 187.5 2.886719 C 85.542969 2.886719 2.886719 85.542969 2.886719 187.5 C 2.886719 289.457031 85.542969 372.113281 187.5 372.113281 C 289.457031 372.113281 372.113281 289.457031 372.113281 187.5 C 372.113281 85.542969 289.457031 2.886719 187.5 2.886719 " clip-rule="nonzero"/></clipPath><clipPath id="6f593f4c49"><path d="M 64.292969 60 L 311 60 L 311 318 L 64.292969 318 Z M 64.292969 60 " clip-rule="nonzero"/></clipPath></defs><g clip-path="url(#e3c689bb82)"><g clip-path="url(#0a268e1feb)"><path fill="#000000" d="M 2.886719 2.886719 L 372.113281 2.886719 L 372.113281 372.113281 L 2.886719 372.113281 Z M 2.886719 2.886719 " fill-opacity="1" fill-rule="nonzero"/></g></g><g clip-path="url(#6f593f4c49)"><path fill="#ff2dae" d="M 298.3125 266.078125 C 295.417969 271.574219 285.097656 282.316406 276.808594 288.460938 C 263.832031 298.085938 234.683594 309.941406 218.679688 312.378906 C 207.191406 314.125 193.453125 312.902344 184.960938 311.203125 C 177.746094 309.761719 167.992188 305.984375 162.320312 302.4375 L 157.832031 299.632812 L 160.230469 297.082031 C 163.65625 293.441406 166.816406 285.785156 167.453125 280.378906 C 168.792969 269.046875 166.523438 257.808594 157.339844 238.222656 C 154.125 231.367188 151.257812 224.808594 150.96875 223.648438 C 150.542969 221.949219 151.632812 219.359375 156.519531 210.4375 C 164.777344 195.371094 165.964844 191.925781 166.378906 185.835938 C 166.929688 177.792969 163.386719 173.191406 157.476562 173.191406 C 151.261719 173.191406 146.472656 177.5625 144.070312 185.433594 C 141.90625 192.53125 141.769531 205.453125 143.761719 214.867188 L 145.136719 221.363281 L 142.324219 227.28125 C 136.226562 240.117188 133.464844 252.117188 134.390625 261.726562 C 135.71875 275.484375 140.570312 288.390625 147.179688 295.734375 L 150.671875 299.613281 L 147.660156 300.875 C 142.234375 303.148438 136.96875 303.84375 128.441406 303.414062 C 113.5625 302.664062 100.234375 297.171875 89.917969 287.550781 C 80.90625 279.144531 75.78125 270.929688 71.929688 258.726562 C 65.949219 239.777344 67.742188 221.660156 77.65625 200.878906 C 79.417969 197.195312 81.015625 194.707031 81.210938 195.347656 C 83.824219 203.804688 87.828125 214.660156 89.714844 218.394531 C 97.210938 233.226562 115.773438 255.851562 119.957031 255.257812 C 122.621094 254.878906 122.539062 251.5625 119.664062 243.316406 C 117.398438 236.820312 117.082031 234.828125 116.730469 224.773438 C 116.265625 211.59375 117.136719 205.0625 120.960938 192.996094 C 125.769531 177.828125 130.238281 170.167969 156.941406 131.339844 C 164.59375 120.207031 171.132812 107.722656 173.851562 99.039062 C 175.824219 92.738281 177.609375 81.300781 177.054688 78.488281 C 176.394531 75.117188 176.078125 68.050781 176.585938 68.050781 C 176.898438 68.050781 178.8125 69.738281 180.84375 71.804688 C 185.351562 76.394531 188.296875 82.628906 189.972656 91.117188 C 191.632812 99.53125 190.621094 109.9375 186.304688 128.921875 C 179.445312 159.066406 177.484375 171.601562 177.523438 185.046875 C 177.5625 199.75 180.425781 209.324219 187.4375 218.242188 C 194.871094 227.691406 203.210938 231.191406 211.113281 228.175781 C 218.5625 225.335938 221.480469 218.308594 220.804688 204.84375 C 220.449219 197.757812 219.832031 194.796875 216.679688 185.046875 C 213.773438 176.078125 212.878906 172.039062 212.5625 166.472656 C 212.035156 157.230469 213.386719 152.789062 214.167969 161.195312 C 215.074219 170.933594 219.203125 178.828125 228.824219 189.207031 C 237.753906 198.847656 242.179688 204.625 244.675781 209.898438 C 249.046875 219.140625 249.222656 218.554688 239.875 226.136719 C 227.496094 236.179688 220.078125 244.582031 214.996094 254.328125 C 207.492188 268.703125 217.238281 280.988281 230.902344 274.378906 C 235.242188 272.28125 243.332031 263.679688 247.347656 256.894531 C 252.476562 248.238281 254.359375 242.527344 254.144531 230.3125 C 254.097656 227.816406 253.402344 220.925781 253.402344 220.925781 C 253.402344 220.925781 256.304688 217.023438 257.277344 215.730469 C 264.292969 206.421875 265.558594 197.011719 261.679688 181.738281 C 258.957031 171.023438 258.167969 150.8125 260.109375 141.570312 C 262.136719 131.914062 268.292969 121.136719 274.898438 115.6875 C 279.167969 112.164062 279.582031 112.5625 277.527344 118.214844 C 273.933594 128.105469 273.628906 141.957031 276.738281 153.949219 C 278.667969 161.382812 283.105469 171.359375 289.210938 182.007812 C 303.183594 206.371094 305.785156 213.914062 305.808594 230.144531 C 305.832031 245.597656 303.6875 255.878906 298.3125 266.078125 Z M 148.03125 186.863281 C 150.496094 179.292969 157.160156 174.832031 160.546875 178.808594 C 165.292969 184.382812 160.183594 194.761719 151.546875 210.269531 C 148.855469 215.097656 148.691406 215.242188 147.917969 213.429688 C 146.734375 210.640625 146.078125 192.851562 148.03125 186.863281 Z M 154.632812 296.90625 L 151.367188 293.746094 C 144.507812 287.101562 138.765625 270.722656 138.726562 257.703125 C 138.71875 254.296875 139.371094 249.113281 140.246094 245.710938 C 142.167969 238.195312 146.617188 227.402344 147.433594 228.269531 C 147.769531 228.628906 150.539062 234.257812 153.589844 240.78125 C 161.765625 258.269531 166.46875 272.132812 161.445312 287.023438 C 159.519531 292.734375 154.632812 296.90625 154.632812 296.90625 Z M 83.542969 168.449219 C 84.109375 153.296875 86.722656 143.988281 92.59375 136.167969 C 96.183594 131.386719 102.308594 128.886719 103.40625 131.753906 C 105.164062 136.320312 102.457031 146.351562 96.390625 157.777344 C 92.691406 164.738281 84.578125 178.425781 83.503906 179.515625 C 83.289062 179.730469 83.308594 174.753906 83.542969 168.449219 Z M 249.109375 224.332031 C 249.109375 224.332031 249.554688 230.171875 249.613281 232 C 249.769531 237.023438 249.164062 240.378906 248.277344 243.4375 C 244.445312 256.699219 231.53125 272.003906 224.171875 272.003906 C 218.871094 272.003906 215.28125 266.558594 216.9375 261.03125 C 219.386719 252.859375 228.691406 241.148438 240.386719 231.515625 Z M 295.777344 184.585938 C 284.230469 164.710938 279.8125 152.917969 279.023438 139.839844 C 278.480469 130.8125 279.5 124.636719 282.878906 116.496094 C 285.75 109.566406 285.621094 108.058594 282.105469 107.722656 C 273.804688 106.921875 259.785156 123.574219 256.269531 138.40625 C 253.308594 150.894531 253.898438 168.265625 257.835938 184.488281 C 260.195312 194.222656 260.300781 199.503906 258.25 204.90625 C 255.785156 211.382812 251.828125 215.972656 251.089844 214.078125 C 250.886719 213.558594 249.886719 210.566406 248.421875 207.507812 C 245.957031 202.367188 243.761719 199.539062 228.875 182.328125 C 220.902344 173.105469 217.867188 164.976562 217.855469 152.808594 C 217.851562 148.945312 217.5625 147.734375 216.554688 147.347656 C 213.625 146.226562 209.703125 151.277344 208.3125 157.964844 C 207.003906 164.261719 208.476562 174.507812 212.34375 186.027344 C 217.464844 201.285156 218.152344 210.871094 214.691406 218.777344 C 210.253906 228.914062 198.070312 226.351562 189.457031 213.464844 C 178.824219 197.5625 179.058594 180.515625 190.601562 129.9375 C 196.308594 104.933594 196.300781 90.0625 190.574219 77.746094 C 186.066406 68.042969 170.292969 56.296875 170.394531 62.714844 C 170.410156 63.695312 170.9375 66.628906 171.570312 69.238281 C 174.917969 83.09375 170.851562 100.429688 160.027344 118.421875 C 157.726562 122.238281 151.847656 131.082031 146.957031 138.074219 C 121.199219 174.902344 114.074219 190.511719 112.171875 214.304688 C 111.519531 222.460938 112.925781 237.5 114.886719 243.300781 C 116.308594 247.507812 116.308594 247.523438 114.75 246.132812 C 111.757812 243.453125 104.082031 233.617188 99.480469 226.570312 C 92.820312 216.363281 87.574219 203.382812 84.582031 189.699219 C 84.222656 188.070312 85.558594 185.246094 90.941406 176.261719 C 107.453125 148.703125 111.96875 133.757812 105.679688 127.476562 C 100.25 122.054688 88.171875 130.757812 83.382812 143.539062 C 80.152344 152.160156 79.109375 159.542969 79.019531 174.375 L 78.933594 188.605469 L 75.480469 195.316406 C 67.546875 210.722656 64.3125 222.726562 64.324219 236.71875 C 64.339844 257.703125 71.152344 274.953125 84.847656 288.675781 C 92.761719 296.609375 99.742188 300.980469 109.914062 304.367188 C 124.355469 309.179688 139.613281 309.308594 149.875 304.710938 L 154.445312 302.664062 L 156.667969 304.230469 C 159.957031 306.550781 170.136719 311.535156 175.113281 313.261719 C 185.074219 316.714844 204.972656 318.789062 222.597656 316.21875 C 235.789062 314.296875 261.003906 304.082031 273.347656 296.105469 C 285.640625 288.164062 297.105469 277.347656 301.824219 269.238281 C 307.683594 259.171875 311.003906 242.140625 310.207031 226.246094 C 309.480469 211.882812 306.296875 202.691406 295.777344 184.585938 " fill-opacity="1" fill-rule="nonzero"/></g></svg>