<svg xmlns="http://www.w3.org/2000/svg" xmlns:xlink="http://www.w3.org/1999/xlink" width="500" zoomAndPan="magnify" viewBox="0 0 375 374.999991" height="500" preserveAspectRatio="xMidYMid meet" version="1.0"><defs><clipPath id="6940bc0712"><path d="M 11.441406 6 L 363 6 L 363 373 L 11.441406 373 Z M 11.441406 6 " clip-rule="nonzero"/></clipPath></defs><rect x="-37.5" width="450" fill="#ffffff" y="-37.499999" height="449.999989" fill-opacity="1"/><rect x="-37.5" width="450" fill="#ffffff" y="-37.499999" height="449.999989" fill-opacity="1"/><rect x="-37.5" width="450" fill="#ffffff" y="-37.499999" height="449.999989" fill-opacity="1"/><g clip-path="url(#6940bc0712)"><path fill="#ff2dae" d="M 345.042969 299.703125 C 340.917969 307.558594 326.207031 322.902344 314.390625 331.683594 C 295.890625 345.433594 254.34375 362.367188 231.523438 365.847656 C 215.148438 368.34375 195.566406 366.601562 183.460938 364.171875 C 173.175781 362.113281 159.273438 356.714844 151.183594 351.644531 L 144.785156 347.636719 L 148.207031 344 C 153.089844 338.796875 157.59375 327.859375 158.503906 320.132812 C 160.410156 303.949219 157.175781 287.894531 144.082031 259.914062 C 139.503906 250.121094 135.414062 240.75 135 239.089844 C 134.398438 236.664062 135.949219 232.964844 142.917969 220.21875 C 154.6875 198.699219 156.382812 193.773438 156.972656 185.074219 C 157.753906 173.585938 152.707031 167.007812 144.277344 167.007812 C 135.421875 167.007812 128.597656 173.253906 125.171875 184.5 C 122.085938 194.636719 121.890625 213.097656 124.730469 226.546875 L 126.6875 235.828125 L 122.683594 244.28125 C 113.992188 262.617188 110.050781 279.761719 111.371094 293.492188 C 113.261719 313.140625 120.183594 331.582031 129.605469 342.074219 L 134.582031 347.613281 L 130.285156 349.417969 C 122.554688 352.664062 115.046875 353.65625 102.894531 353.042969 C 81.683594 351.96875 62.679688 344.125 47.976562 330.382812 C 35.128906 318.371094 27.824219 306.636719 22.332031 289.203125 C 13.808594 262.128906 16.363281 236.253906 30.496094 206.566406 C 33.003906 201.300781 35.285156 197.746094 35.566406 198.660156 C 39.285156 210.742188 45 226.25 47.6875 231.585938 C 58.371094 252.777344 84.832031 285.09375 90.796875 284.246094 C 94.59375 283.707031 94.476562 278.972656 90.378906 267.1875 C 87.148438 257.90625 86.699219 255.0625 86.195312 240.699219 C 85.53125 221.871094 86.773438 212.539062 92.226562 195.300781 C 99.082031 173.632812 105.449219 162.695312 143.515625 107.21875 C 154.425781 91.316406 163.746094 73.484375 167.621094 61.078125 C 170.433594 52.078125 172.980469 35.734375 172.191406 31.722656 C 171.25 26.902344 170.796875 16.808594 171.519531 16.808594 C 171.964844 16.808594 174.695312 19.222656 177.589844 22.171875 C 184.015625 28.726562 188.21875 37.632812 190.605469 49.761719 C 192.96875 61.777344 191.527344 76.648438 185.375 103.765625 C 175.597656 146.832031 172.804688 164.738281 172.855469 183.949219 C 172.914062 204.949219 176.992188 218.628906 186.992188 231.367188 C 197.585938 244.867188 209.476562 249.867188 220.742188 245.558594 C 231.363281 241.5 235.519531 231.464844 234.558594 212.226562 C 234.050781 202.105469 233.171875 197.875 228.671875 183.949219 C 224.535156 171.132812 223.257812 165.363281 222.804688 157.410156 C 222.050781 144.210938 223.980469 137.867188 225.09375 149.875 C 226.386719 163.785156 232.273438 175.0625 245.984375 189.890625 C 258.714844 203.660156 265.027344 211.914062 268.582031 219.449219 C 274.816406 232.65625 275.0625 231.8125 261.742188 242.644531 C 244.09375 256.992188 233.523438 269 226.273438 282.917969 C 215.578125 303.457031 229.46875 321.003906 248.949219 311.566406 C 255.136719 308.566406 266.667969 296.28125 272.394531 286.585938 C 279.703125 274.222656 282.390625 266.0625 282.082031 248.609375 C 282.019531 245.046875 281.027344 235.203125 281.027344 235.203125 C 281.027344 235.203125 285.160156 229.628906 286.550781 227.78125 C 296.546875 214.480469 298.355469 201.039062 292.824219 179.222656 C 288.941406 163.914062 287.816406 135.042969 290.585938 121.835938 C 293.476562 108.039062 302.253906 92.648438 311.667969 84.859375 C 317.75 79.824219 318.34375 80.398438 315.414062 88.46875 C 310.292969 102.605469 309.855469 122.390625 314.289062 139.519531 C 317.039062 150.140625 323.363281 164.394531 332.070312 179.605469 C 351.988281 214.410156 355.695312 225.1875 355.730469 248.375 C 355.761719 270.449219 352.707031 285.132812 345.042969 299.703125 Z M 130.8125 186.539062 C 134.332031 175.722656 143.832031 169.355469 148.660156 175.035156 C 155.425781 182.996094 148.136719 197.824219 135.828125 219.976562 C 131.992188 226.875 131.753906 227.082031 130.65625 224.496094 C 128.96875 220.511719 128.03125 195.097656 130.8125 186.539062 Z M 140.230469 343.746094 L 135.574219 339.230469 C 125.796875 329.742188 117.605469 306.34375 117.554688 287.742188 C 117.539062 282.875 118.472656 275.472656 119.71875 270.605469 C 122.460938 259.875 128.800781 244.453125 129.964844 245.695312 C 130.445312 246.207031 134.394531 254.25 138.738281 263.566406 C 150.390625 288.550781 157.101562 308.355469 149.9375 329.628906 C 147.191406 337.789062 140.230469 343.746094 140.230469 343.746094 Z M 38.886719 160.234375 C 39.695312 138.59375 43.417969 125.289062 51.792969 114.117188 C 56.90625 107.289062 65.636719 103.71875 67.207031 107.8125 C 69.707031 114.339844 65.851562 128.664062 57.203125 144.988281 C 51.929688 154.933594 40.363281 174.488281 38.832031 176.042969 C 38.527344 176.355469 38.550781 169.238281 38.886719 160.234375 Z M 274.90625 240.066406 C 274.90625 240.066406 275.539062 248.410156 275.621094 251.023438 C 275.84375 258.195312 274.980469 262.992188 273.71875 267.359375 C 268.253906 286.304688 249.84375 308.171875 239.359375 308.171875 C 231.800781 308.171875 226.679688 300.390625 229.042969 292.5 C 232.535156 280.820312 245.800781 264.089844 262.472656 250.332031 Z M 341.429688 183.285156 C 324.96875 154.894531 318.671875 138.046875 317.550781 119.363281 C 316.773438 106.46875 318.226562 97.644531 323.042969 86.015625 C 327.136719 76.117188 326.953125 73.964844 321.945312 73.484375 C 310.109375 72.339844 290.121094 96.125 285.109375 117.320312 C 280.894531 135.160156 281.734375 159.972656 287.34375 183.148438 C 290.707031 197.054688 290.859375 204.601562 287.933594 212.3125 C 284.421875 221.566406 278.78125 228.125 277.726562 225.417969 C 277.4375 224.679688 276.015625 220.402344 273.921875 216.03125 C 270.410156 208.691406 267.277344 204.648438 246.0625 180.0625 C 234.695312 166.886719 230.367188 155.277344 230.351562 137.894531 C 230.34375 132.371094 229.933594 130.644531 228.496094 130.089844 C 224.320312 128.488281 218.730469 135.703125 216.75 145.257812 C 214.882812 154.25 216.984375 168.890625 222.496094 185.347656 C 229.792969 207.140625 230.773438 220.839844 225.839844 232.132812 C 219.515625 246.617188 202.148438 242.953125 189.867188 224.542969 C 174.714844 201.824219 175.046875 177.472656 191.5 105.21875 C 199.636719 69.5 199.625 48.257812 191.460938 30.660156 C 185.035156 16.796875 162.550781 0.015625 162.695312 9.1875 C 162.71875 10.585938 163.46875 14.777344 164.371094 18.503906 C 169.144531 38.296875 163.34375 63.066406 147.914062 88.765625 C 144.636719 94.222656 136.257812 106.855469 129.289062 116.839844 C 92.5625 169.457031 82.410156 191.753906 79.695312 225.746094 C 78.765625 237.394531 80.773438 258.882812 83.566406 267.167969 C 85.59375 273.179688 85.59375 273.199219 83.375 271.210938 C 79.105469 267.382812 68.164062 253.335938 61.605469 243.265625 C 52.113281 228.683594 44.636719 210.140625 40.367188 190.59375 C 39.855469 188.265625 41.761719 184.234375 49.433594 171.398438 C 72.972656 132.027344 79.410156 110.679688 70.441406 101.703125 C 62.703125 93.957031 45.484375 106.386719 38.660156 124.648438 C 34.054688 136.964844 32.566406 147.511719 32.4375 168.703125 L 32.316406 189.03125 L 27.394531 198.617188 C 16.085938 220.628906 11.476562 237.773438 11.492188 257.761719 C 11.511719 287.738281 21.226562 312.382812 40.746094 331.988281 C 52.03125 343.324219 61.980469 349.5625 76.476562 354.40625 C 97.0625 361.277344 118.816406 361.464844 133.445312 354.894531 L 139.957031 351.96875 L 143.128906 354.207031 C 147.816406 357.527344 162.328125 364.640625 169.421875 367.109375 C 183.625 372.042969 211.988281 375.007812 237.113281 371.335938 C 255.914062 368.589844 291.859375 353.996094 309.457031 342.601562 C 326.980469 331.257812 343.320312 315.808594 350.050781 304.21875 C 358.402344 289.835938 363.132812 265.507812 362 242.800781 C 360.964844 222.285156 356.429688 209.152344 341.429688 183.285156 " fill-opacity="1" fill-rule="nonzero"/></g></svg>